<?xml version="1.0" encoding="UTF-8" standalone="no"?>
<!-- Uploaded to: SVG Repo, www.svgrepo.com, Generator: SVG Repo Mixer Tools -->

<svg
   fill="#000000"
   version="1.1"
   id="Capa_1"
   viewBox="0 0 297 297"
   xml:space="preserve"
   sodipodi:docname="blink-svgrepo-com.svg"
   inkscape:version="1.4 (86a8ad7, 2024-10-11)"
   xmlns:inkscape="http://www.inkscape.org/namespaces/inkscape"
   xmlns:sodipodi="http://sodipodi.sourceforge.net/DTD/sodipodi-0.dtd"
   xmlns="http://www.w3.org/2000/svg"
   xmlns:svg="http://www.w3.org/2000/svg"><defs
   id="defs1" /><sodipodi:namedview
   id="namedview1"
   pagecolor="#ffffff"
   bordercolor="#000000"
   borderopacity="0.25"
   inkscape:showpageshadow="2"
   inkscape:pageopacity="0.0"
   inkscape:pagecheckerboard="0"
   inkscape:deskcolor="#d1d1d1"
   inkscape:zoom="1.6775"
   inkscape:cx="400"
   inkscape:cy="400.29806"
   inkscape:window-width="2560"
   inkscape:window-height="1369"
   inkscape:window-x="-8"
   inkscape:window-y="564"
   inkscape:window-maximized="1"
   inkscape:current-layer="Capa_1" />
<path
   d="M 294.908,124.97 C 294.342,124.215 280.74,106.25 256.027,88.278 223.185,64.391 186.004,51.766 148.502,51.766 111.001,51.766 73.819,64.391 40.976,88.277 16.262,106.25 2.658,124.215 2.092,124.97 c -2.789,3.719 -2.789,8.831 0,12.55 0.497,0.663 11.019,14.555 30.262,30.084 L 18.36,195.59 c -2.583,5.165 -0.489,11.447 4.678,14.029 1.501,0.751 3.096,1.106 4.668,1.106 3.836,0 7.529,-2.118 9.361,-5.783 l 12.429,-24.855 c 10.645,6.962 21.689,12.783 33.009,17.412 l -12.379,24.758 c -2.583,5.165 -0.489,11.447 4.678,14.03 1.501,0.75 3.097,1.105 4.668,1.105 3.836,0 7.53,-2.118 9.362,-5.783 l 13.631,-27.262 c 11.7,3.266 23.604,5.3 35.578,6.048 v 24.381 c 0,5.775 4.683,10.458 10.458,10.458 5.775,0 10.458,-4.683 10.458,-10.458 v -24.381 c 11.976,-0.748 23.878,-2.782 35.578,-6.048 l 13.631,27.262 c 1.833,3.665 5.525,5.783 9.362,5.783 1.571,0 3.168,-0.355 4.668,-1.105 5.167,-2.583 7.261,-8.865 4.678,-14.03 L 214.497,197.5 c 11.321,-4.63 22.364,-10.451 33.01,-17.414 l 12.428,24.856 c 1.832,3.665 5.524,5.783 9.361,5.783 1.572,0 3.168,-0.355 4.669,-1.106 5.166,-2.582 7.26,-8.864 4.677,-14.029 l -13.993,-27.987 c 19.244,-15.528 29.763,-29.42 30.26,-30.083 2.788,-3.719 2.788,-8.831 -10e-4,-12.55 z m -51.741,32.731 c -29.514,21.305 -61.363,32.107 -94.665,32.107 -33.303,0 -65.152,-10.803 -94.668,-32.107 -13.898,-10.031 -23.998,-20.177 -29.681,-26.456 5.686,-6.283 15.785,-16.428 29.681,-26.457 29.516,-21.305 61.365,-32.106 94.668,-32.106 33.302,0 65.151,10.802 94.665,32.106 13.898,10.031 23.998,20.177 29.681,26.457 -5.686,6.282 -15.785,16.427 -29.681,26.456 z"
   id="path1"
   sodipodi:nodetypes="ccsccccccscccccscccssscccscccccsccccccscccsccc" />
<path
   style="fill:#1cd997;stroke-width:0.596125"
   d="m 392.99593,659.32569 c -9.05471,-2.5486 -15.58794,-8.60942 -19.28981,-17.89499 l -1.42594,-3.57675 -0.17527,-35.59639 -0.17527,-35.59639 -1.91117,-0.28683 c -1.05114,-0.15776 -5.53263,-0.58373 -9.95886,-0.9466 -22.96333,-1.88255 -51.57681,-6.84278 -75.40695,-13.072 -4.91646,-1.28516 -8.97788,-2.29066 -9.02538,-2.23443 -0.0475,0.0562 -8.72187,17.38047 -19.27636,38.49832 -17.51313,35.04097 -19.48084,38.70102 -22.51856,41.88575 -14.31732,15.01022 -39.04525,9.33414 -46.10643,-10.58331 -1.459,-4.11538 -1.7369,-11.5904 -0.58384,-15.7041 0.4066,-1.45061 8.49577,-18.14866 17.97594,-37.10677 9.48016,-18.95812 17.23666,-34.69823 17.23666,-34.97802 0,-0.2798 -1.81073,-1.26133 -4.02384,-2.18119 -25.24838,-10.49427 -56.3291,-26.80799 -78.97195,-41.45098 -3.0219,-1.95424 -5.70071,-3.55317 -5.95292,-3.55317 -0.25221,0 -8.40592,15.87979 -18.11936,35.28843 -16.533022,33.035 -17.877297,35.50493 -21.051151,38.67878 -13.614032,13.61403 -35.982812,9.8689 -44.47495,-7.44629 -2.429881,-4.95445 -3.251022,-9.91271 -2.595212,-15.67052 0.426267,-3.7425 2.004101,-7.14653 20.499969,-44.2267 11.020989,-22.09467 19.820536,-40.35816 19.554551,-40.58554 -0.265985,-0.22737 -3.648793,-3.0393 -7.517341,-6.24872 C 48.326253,418.70695 9.7601568,378.65664 3.106109,365.19309 0.92422313,360.77834 0.89418778,360.62002 0.89418778,353.53315 c 0,-6.79215 0.10042218,-7.39598 1.83922552,-11.05923 C 7.5214885,332.38658 38.761627,298.33224 63.492358,276.24164 162.95341,187.39856 280.3602,139.79136 400,139.79136 c 112.65,0 224.19583,42.48391 319.22504,121.58165 14.97377,12.46344 24.38867,21.09267 39.35535,36.07112 20.66146,20.67774 35.10986,37.49532 38.6862,45.02979 1.73878,3.66325 1.83922,4.26708 1.83922,11.05923 0,7.08687 -0.03,7.24519 -2.21192,11.65994 -3.82164,7.73256 -22.6803,29.34516 -42.61705,48.8405 -13.91356,13.60549 -25.00149,23.48812 -41.78814,37.24568 -0.0984,0.0807 8.84263,18.21814 19.86898,40.30552 19.04804,38.15604 20.06837,40.36699 20.45794,44.33175 0.59255,6.03095 -0.17771,10.66195 -2.59213,15.58456 -8.48912,17.30807 -30.83798,21.03495 -44.45896,7.41395 -3.17383,-3.17385 -4.51815,-5.64378 -21.05115,-38.67878 -9.71344,-19.40864 -17.82337,-35.28843 -18.02199,-35.28843 -0.19869,0 -4.16179,2.38814 -8.80686,5.30697 -23.28232,14.62985 -51.60703,29.44307 -74.427,38.92374 -3.19673,1.32808 -5.81222,2.65065 -5.81222,2.93902 0,0.28838 7.7565,16.03551 17.23666,34.99363 9.48018,18.95811 17.56936,35.65616 17.97591,37.10677 1.15309,4.1137 0.87518,11.58872 -0.58378,15.7041 -3.56662,10.06022 -12.02522,17.16737 -22.40546,18.82563 -8.50241,1.35826 -17.54217,-1.78542 -23.701,-8.24232 -3.03772,-3.18473 -5.00543,-6.84478 -22.51856,-41.88575 -10.55449,-21.11785 -19.22755,-38.43022 -19.27348,-38.47193 -0.0459,-0.0417 -6.25339,1.46838 -13.79438,3.35578 -22.52533,5.63775 -46.02883,9.66317 -67.95827,11.63913 -5.90164,0.53177 -11.59028,1.09099 -12.64142,1.24271 l -1.91117,0.27585 -0.19072,35.59639 c -0.18888,35.25418 -0.20364,35.63077 -1.53512,39.17314 -2.88215,7.66786 -9.27878,14.21213 -16.61324,16.9967 -4.48937,1.7044 -12.36874,2.12734 -16.73535,0.89829 z m 22.80139,-148.16773 c 37.29419,-1.58609 69.30288,-7.02941 104.61997,-17.79144 73.14536,-22.28929 146.93335,-68.86734 205.51416,-129.72905 5,-5.19469 9.0909,-9.81935 9.0909,-10.27702 0,-1.07582 -28.62235,-29.64141 -37.55588,-37.4814 -69.39076,-60.89676 -143.70631,-98.74288 -222.87236,-113.50051 -40.00987,-7.45839 -83.28983,-8.79124 -124.37056,-3.83013 -67.60628,8.16447 -134.92847,34.53239 -195.82713,76.69914 -27.85793,19.28907 -49.47809,37.38872 -74.366614,62.25718 -8.278688,8.27202 -15.052161,15.47181 -15.052161,15.99953 0,1.18105 28.149324,29.38542 37.555885,37.62933 59.00125,51.70873 120.40724,86.27386 186.62273,105.04899 29.97148,8.4983 62.20716,13.66045 93.44846,14.96463 15.95547,0.66608 17.76959,0.66666 33.1926,0.0108 z"
   id="path3"
   transform="scale(0.37125)" /></svg>
