<?xml version="1.0" encoding="UTF-8" standalone="no"?>
<!-- Uploaded to: SVG Repo, www.svgrepo.com, Generator: SVG Repo Mixer Tools -->

<svg
   viewBox="0 0 24 24"
   fill="none"
   version="1.1"
   id="svg1"
   xmlns="http://www.w3.org/2000/svg"
   xmlns:svg="http://www.w3.org/2000/svg">
  <defs
     id="defs1" />
  <path
     fill-rule="evenodd"
     clip-rule="evenodd"
     d="M 20.478287,0.355606 C 19.669766,0.3822591 19.038653,0.9864038 19.068685,1.7050108 L 19.21196,5.1394583 C 17.229845,3.7731661 14.740116,2.9587812 12.035767,2.9587812 c -6.4726809,0 -11.71982065,4.6635441 -11.71982065,10.4162808 0,5.75279 5.24713975,10.416294 11.71982065,10.416294 6.472712,0 11.719822,-4.663504 11.719822,-10.416294 0,-0.719114 -0.65587,-1.302037 -1.464978,-1.302037 -0.809107,0 -1.464978,0.582923 -1.464978,1.302037 0,4.31456 -3.935369,7.81222 -8.789866,7.81222 -4.8545106,0 -8.7898653,-3.49766 -8.7898653,-7.81222 0,-4.3145455 3.9353547,-7.8122074 8.7898653,-7.8122074 2.313786,0 4.419546,0.7941514 5.990294,2.094847 l -4.988396,0.5180283 c -0.80354,0.08346 -1.378836,0.7301041 -1.284931,1.4443491 0.09391,0.714233 0.821413,1.225646 1.625099,1.142134 L 20.995718,9.971108 C 21.754576,9.892296 22.317859,9.3082671 22.289585,8.6296069 L 21.99659,1.6084909 C 21.966557,0.88988378 21.286808,0.32895332 20.478287,0.355606 Z"
     fill="#1cd997"
     id="path1"
     style="stroke-width:1.38111" />
</svg>
